<svg xmlns="http://www.w3.org/2000/svg" viewBox="0 0 32 32">
  <g fill="#2238e4" transform="translate(-0.39 24.76) scale(0.01286 -0.01286)">
    <path d="M1304 894Q1304 765 1238.5 670.5Q1173 576 1053.5 523.5Q934 471 773 471Q665 471 574.5 494Q484 517 418 558L431 638Q467 614 511 597.5Q555 581 604 572.5Q653 564 705 564Q801 564 876 603.5Q951 643 993.5 718.5Q1036 794 1036 901Q1036 1025 985 1117Q934 1209 841.5 1259.5Q749 1310 623 1310H531V154Q531 133 543 118Q555 103 580 99L675 87Q698 83 708 72Q718 61 718 41Q718 22 705 11Q692 0 664 0H163Q135 0 121.5 11Q108 22 108 41Q108 75 148 87L210 99Q234 105 247 119Q260 133 260 154V1246Q260 1267 247 1281Q234 1295 210 1301L148 1313Q108 1325 108 1359Q108 1378 121.5 1389Q135 1400 163 1400H630Q843 1400 993.5 1335Q1144 1270 1224 1155.5Q1304 1041 1304 894Z"/>
    <path transform="translate(1242 0)" d="M641 1313L579 1301Q556 1295 543 1281Q530 1267 530 1246V161Q530 123 552.5 107Q575 91 622 91H810Q868 91 908 106Q948 121 979.5 159.5Q1011 198 1042 269L1101 405Q1111 427 1126.5 435.5Q1142 444 1163 439Q1185 434 1193.5 419Q1202 404 1195 378L1108 28Q1098 -6 1083 -22Q1068 -38 1040 -38Q1020 -38 1001 -28.5Q982 -19 959 -9.5Q936 0 902 0H162Q134 0 120.5 11.5Q107 23 107 41Q107 75 147 87L209 99Q233 105 246 119Q259 133 259 154V1246Q259 1267 246 1281Q233 1295 209 1301L147 1313Q107 1325 107 1359Q107 1378 120.5 1389Q134 1400 162 1400H627Q655 1400 668 1389Q681 1378 681 1359Q681 1325 641 1313Z"/>
  </g>
</svg>
