<svg xmlns="http://www.w3.org/2000/svg" viewBox="0 0 32 32" aria-label="PL Conferences Logo">
  <g fill="#2238e4" transform="translate(-0.266 26) scale(0.013423 -0.013423)">
    <path d="M164.88 0V1490H698.64Q871.2 1490 985.86 1426.14Q1100.52 1362.28 1157.72 1253.12Q1214.92 1143.96 1214.92 1006.28Q1214.92 868.42 1157.45 758.89Q1099.98 649.36 985.1 585.45Q870.22 521.54 696.94 521.54H331.8V715H674.8Q784.52 715 852.74 752.8Q920.96 790.6 952.47 856.69Q983.98 922.78 983.98 1006.28Q983.98 1090.14 952.47 1155.32Q920.96 1220.5 852.33 1257.62Q783.7 1294.74 673.16 1294.74H393.4V0Z"/>
    <path transform="translate(1191.12 0)" d="M164.88 0V1490H393.4V196.44H1067.56V0Z"/>
  </g>
</svg>
